G04 EAGLE Gerber RS-274X export*
G75*
%MOMM*%
%FSLAX34Y34*%
%LPD*%
%INSoldermask Bottom*%
%IPPOS*%
%AMOC8*
5,1,8,0,0,1.08239X$1,22.5*%
G01*
%ADD10R,1.763200X1.763200*%
%ADD11C,1.763200*%
%ADD12C,1.727200*%
%ADD13C,2.082800*%
%ADD14C,2.362200*%
%ADD15C,2.743200*%
%ADD16P,2.034460X8X112.500000*%
%ADD17C,3.403200*%
%ADD18C,1.981200*%
%ADD19C,2.583200*%
%ADD20C,1.854200*%
%ADD21C,0.959600*%


D10*
X114300Y553200D03*
D11*
X114300Y527800D03*
X114300Y96000D03*
X114300Y502400D03*
X114300Y477000D03*
X114300Y451600D03*
X114300Y426200D03*
X114300Y400800D03*
X114300Y375400D03*
X114300Y350000D03*
X114300Y324600D03*
X114300Y299200D03*
X114300Y273800D03*
X114300Y248400D03*
X114300Y223000D03*
X114300Y197600D03*
X114300Y172200D03*
X114300Y146800D03*
X114300Y121400D03*
X368300Y553200D03*
X368300Y527800D03*
X368300Y502400D03*
X368300Y477000D03*
X368300Y451600D03*
X368300Y426200D03*
X368300Y400800D03*
X368300Y375400D03*
X368300Y350000D03*
X368300Y324600D03*
X368300Y299200D03*
X368300Y273800D03*
X368300Y248400D03*
X368300Y223000D03*
X368300Y197600D03*
X368300Y172200D03*
X368300Y146800D03*
X368300Y121400D03*
X368300Y96000D03*
D12*
X647700Y660400D03*
X647700Y635000D03*
X647700Y609600D03*
X711200Y660400D03*
X711200Y635000D03*
X711200Y609600D03*
X774700Y660400D03*
X774700Y635000D03*
X774700Y609600D03*
X520700Y241300D03*
X520700Y266700D03*
X520700Y292100D03*
X584200Y660400D03*
X584200Y635000D03*
X584200Y609600D03*
X520700Y660400D03*
X520700Y635000D03*
X520700Y609600D03*
X584200Y241300D03*
X584200Y266700D03*
X584200Y292100D03*
X647700Y241300D03*
X647700Y266700D03*
X647700Y292100D03*
X711200Y241300D03*
X711200Y266700D03*
X711200Y292100D03*
D13*
X40894Y653288D03*
X40894Y718312D03*
X86106Y653288D03*
X86106Y718312D03*
X25400Y533400D03*
X25400Y558800D03*
X25400Y584200D03*
X25400Y609600D03*
X25400Y177800D03*
X25400Y203200D03*
X25400Y228600D03*
X25400Y254000D03*
D12*
X774700Y241300D03*
X774700Y266700D03*
X774700Y292100D03*
D14*
X521100Y51800D03*
X571100Y51800D03*
X571100Y176800D03*
X521100Y176800D03*
X648100Y51800D03*
X698100Y51800D03*
X698100Y176800D03*
X648100Y176800D03*
D15*
X393395Y768906D03*
X367995Y819706D03*
X342595Y768906D03*
D16*
X139700Y774700D03*
X139700Y800100D03*
X190500Y774700D03*
X190500Y800100D03*
X241300Y774700D03*
X241300Y800100D03*
D13*
X215900Y673100D03*
X215900Y749300D03*
X254000Y673100D03*
X254000Y749300D03*
X292100Y673100D03*
X292100Y749300D03*
D17*
X63500Y63500D03*
X63500Y787400D03*
X787400Y787400D03*
X787400Y63500D03*
D13*
X411226Y554584D03*
X411226Y579984D03*
D18*
X589737Y461975D02*
X607517Y461975D01*
X607517Y436575D02*
X589737Y436575D01*
X589737Y487375D02*
X607517Y487375D01*
X607517Y512775D02*
X589737Y512775D01*
X589737Y538175D02*
X607517Y538175D01*
X607517Y411175D02*
X589737Y411175D01*
X589737Y385775D02*
X607517Y385775D01*
X607517Y360375D02*
X589737Y360375D01*
D13*
X406400Y152400D03*
X406400Y76200D03*
X431800Y152400D03*
X431800Y76200D03*
D19*
X521100Y805400D02*
X521100Y829200D01*
X571100Y829200D02*
X571100Y805400D01*
X622700Y805400D02*
X622700Y829200D01*
X672700Y829200D02*
X672700Y805400D01*
X805400Y431400D02*
X829200Y431400D01*
X829200Y381400D02*
X805400Y381400D01*
X805400Y533000D02*
X829200Y533000D01*
X829200Y483000D02*
X805400Y483000D01*
D20*
X825500Y253200D03*
X825500Y153200D03*
X825500Y648500D03*
X825500Y748500D03*
D21*
X297700Y527800D03*
X273406Y551891D03*
X50800Y508000D03*
X152400Y571500D03*
X203200Y469900D03*
X190500Y508000D03*
X215900Y571500D03*
M02*
